<svg xmlns="http://www.w3.org/2000/svg" width="40" height="40" viewBox="0 0 40 40"><g transform="translate(-1720 -412)"><rect width="40" height="40" rx="10" transform="translate(1720 412)" fill="#ecf0f3" opacity="0.5"/><g transform="translate(1731.877 421.963)"><line x1="8.262" y1="4.764" transform="translate(4.131 2.027)" fill="none" stroke="#6c8393" stroke-linecap="round" stroke-linejoin="round" stroke-width="1.5"/><path d="M19.524,14.852V7.508a1.836,1.836,0,0,0-.918-1.588L12.18,2.248a1.836,1.836,0,0,0-1.836,0L3.918,5.92A1.836,1.836,0,0,0,3,7.508v7.344a1.836,1.836,0,0,0,.918,1.588l6.426,3.672a1.836,1.836,0,0,0,1.836,0l6.426-3.672A1.836,1.836,0,0,0,19.524,14.852Z" transform="translate(-3 -2.002)" fill="none" stroke="#6c8393" stroke-linecap="round" stroke-linejoin="round" stroke-width="1.5"/><path d="M3.27,6.96,11.284,11.6,19.3,6.96" transform="translate(-3.022 -2.409)" fill="none" stroke="#6c8393" stroke-linecap="round" stroke-linejoin="round" stroke-width="1.5"/><line y1="9.253" transform="translate(8.262 9.178)" fill="none" stroke="#6c8393" stroke-linecap="round" stroke-linejoin="round" stroke-width="1.5"/></g></g></svg>