<svg xmlns="http://www.w3.org/2000/svg" width="127.755" height="34.193" viewBox="0 0 127.755 34.193"><path d="M54,26.34h3.763V0H54Z" transform="translate(47.597)" fill="#44d695" fill-rule="evenodd"/><path d="M42.1,24.7h3.763V4H42.1ZM12,24.7h3.763V4H12Z" transform="translate(10.577 3.526)" fill="#292a2f" fill-rule="evenodd"/><g transform="translate(0 0.056)"><path d="M86.605,18.988H78.12A2.378,2.378,0,0,1,75.9,16.76V10.241A2.152,2.152,0,0,1,78.12,8.25h8.485V18.988ZM76.931,4a5.276,5.276,0,0,0-5.262,5.336v8.6a5.186,5.186,0,0,0,5.262,5.279h13.9V4Zm-20.1,14.986H48.342a2.378,2.378,0,0,1-2.224-2.228V10.241A2.152,2.152,0,0,1,48.342,8.25h8.485V18.988ZM47.153,4a5.276,5.276,0,0,0-5.262,5.336v8.6a5.186,5.186,0,0,0,5.262,5.279h13.9V4Z" transform="translate(36.924 3.471)" fill="#44d695" fill-rule="evenodd"/><path d="M31.66,26.72h4.226V.03H31.66Z" transform="translate(27.906 -0.03)" fill="#44d695" fill-rule="evenodd"/><path d="M47.33,4H41.842L33.906,13.61l7.936,9.608H47.33L39.394,13.61Z" transform="translate(29.886 3.471)" fill="#44d695" fill-rule="evenodd"/><path d="M20.064,16.76V10.241A2.152,2.152,0,0,1,22.287,8.25h8.485V18.988H22.287a2.378,2.378,0,0,1-2.224-2.228ZM35,4H21.1a5.272,5.272,0,0,0-5.262,5.332v8.6A5.186,5.186,0,0,0,21.1,23.219H35V4Z" transform="translate(13.958 3.471)" fill="#292a2f" fill-rule="evenodd"/><path d="M44.729,21.96V27.7a2.38,2.38,0,0,1-2.222,2.229H34.02l3.195,4.239h6.468a5.186,5.186,0,0,0,5.264-5.277V21.96ZM22.357,4.267h4.228V.03H22.357Zm29.783,0h4.228V.03H52.14Zm-37.205,18.2H6.453a2.149,2.149,0,0,1-2.224-1.989v-6.76a2.149,2.149,0,0,1,2.222-1.989h8.485V22.472Zm0-22.442V7.5H5.262A5.186,5.186,0,0,0,0,12.782v8.6A5.273,5.273,0,0,0,5.262,26.72h13.9V.03H14.935Z" transform="translate(0 -0.03)" fill="#292a2f" fill-rule="evenodd"/></g></svg>