<svg xmlns="http://www.w3.org/2000/svg" xmlns:xlink="http://www.w3.org/1999/xlink" width="310" height="207" viewBox="0 0 310 207"><defs><filter id="a" x="0" y="0" width="310" height="207" filterUnits="userSpaceOnUse"><feOffset dy="5" input="SourceAlpha"/><feGaussianBlur stdDeviation="10" result="b"/><feFlood flood-color="#44d695" flood-opacity="0.161"/><feComposite operator="in" in2="b"/><feComposite in="SourceGraphic"/></filter></defs><g transform="translate(-1480 -1060)"><g transform="matrix(1, 0, 0, 1, 1480, 1060)" filter="url(#a)"><rect width="250" height="147" rx="18" transform="translate(30 25)" fill="#44d695"/></g><g transform="translate(1680 1130.86)"><path d="M45.464,31.674V26.116A11.116,11.116,0,0,0,34.348,15H12.116A11.116,11.116,0,0,0,1,26.116v5.558" transform="translate(0 21.466)" fill="none" stroke="#fff" stroke-linecap="round" stroke-linejoin="round" stroke-width="4"/><ellipse cx="11.5" cy="11" rx="11.5" ry="11" transform="translate(12 3.14)" fill="none" stroke="#fff" stroke-linecap="round" stroke-linejoin="round" stroke-width="4"/><path d="M28.337,31.443V25.885A11.116,11.116,0,0,0,20,15.13" transform="translate(33.801 21.697)" fill="none" stroke="#d7f6e9" stroke-linecap="round" stroke-linejoin="round" stroke-width="4"/><path d="M16,3.13a11.116,11.116,0,0,1,0,21.537" transform="translate(26.685 0.349)" fill="none" stroke="#d7f6e9" stroke-linecap="round" stroke-linejoin="round" stroke-width="4"/></g><text transform="translate(1660 1137)" fill="#fff" font-size="22" font-family="SegoeUI, Segoe UI"><tspan x="-129.11" y="0">دعوت دوستان</tspan><tspan y="0"></tspan><tspan font-family="Dana-DemiBold, Dana" font-weight="300"><tspan x="0" y="1"></tspan></tspan></text><text transform="translate(1660 1162)" fill="#d7f6e9" font-size="16" font-family="SegoeUI-Light, Segoe UI" font-weight="300"><tspan x="-61.789" y="0">به دیجیکالا</tspan><tspan y="0"></tspan><tspan font-family="Dana-Light, Dana"><tspan x="0" y="1"></tspan></tspan></text><rect width="77" height="26" rx="3" transform="translate(1583 1176)" fill="#40c68b"/><text transform="translate(1647 1192)" fill="#fff" font-size="12" font-family="SegoeUI-Light, Segoe UI" font-weight="300"><tspan x="-45.117" y="0">دعوت‌نامه</tspan><tspan y="0"></tspan><tspan font-family="Dana-Light, Dana"><tspan x="0" y="1"></tspan></tspan></text></g></svg>