<svg xmlns="http://www.w3.org/2000/svg" width="40" height="40" viewBox="0 0 40 40"><g transform="translate(-1720 -542)"><rect width="40" height="40" rx="10" transform="translate(1720 542)" fill="#ecf0f3" opacity="0.5"/><path d="M19.524,10.8a7.693,7.693,0,0,1-.826,3.488,7.8,7.8,0,0,1-6.977,4.315,7.693,7.693,0,0,1-3.488-.826L3,19.524l1.744-5.233A7.693,7.693,0,0,1,3.918,10.8,7.8,7.8,0,0,1,8.233,3.826,7.693,7.693,0,0,1,11.721,3h.459a7.785,7.785,0,0,1,7.344,7.344Z" transform="translate(1729.172 550.714)" fill="rgba(108,131,147,0)" stroke="#6c8393" stroke-linecap="round" stroke-linejoin="round" stroke-width="1.5"/></g></svg>