<svg xmlns="http://www.w3.org/2000/svg" width="40" height="40" viewBox="0 0 40 40"><g transform="translate(-1720 -607)"><rect width="40" height="40" rx="10" transform="translate(1720 607)" fill="#ecf0f3" opacity="0.5"/><g transform="translate(1730.795 617.4)"><path d="M18.688,12v9.18H4V12" transform="translate(-2.164 -2.82)" fill="none" stroke="#6c8393" stroke-linecap="round" stroke-linejoin="round" stroke-width="1.5"/><rect width="18" height="5" transform="translate(0.205 4.6)" fill="none" stroke="#6c8393" stroke-linecap="round" stroke-linejoin="round" stroke-width="1.5"/><line y1="14" transform="translate(9.205 4.6)" fill="none" stroke="#6c8393" stroke-linecap="round" stroke-linejoin="round" stroke-width="1.5"/><path d="M11.426,6.59H7.295a2.295,2.295,0,0,1,0-4.59C10.508,2,11.426,6.59,11.426,6.59Z" transform="translate(-2.246 -2)" fill="none" stroke="#6c8393" stroke-linecap="round" stroke-linejoin="round" stroke-width="1.5"/><path d="M12,6.59h4.131a2.295,2.295,0,1,0,0-4.59C12.918,2,12,6.59,12,6.59Z" transform="translate(-2.82 -2)" fill="none" stroke="#6c8393" stroke-linecap="round" stroke-linejoin="round" stroke-width="1.5"/></g></g></svg>